<svg width="266" height="175" viewBox="0 0 266 175" fill="none" xmlns="http://www.w3.org/2000/svg">
<path d="M94.6277 38.322L94.492 45.0069C94.7163 47.8704 95.0755 51.0054 95.6151 54.3207C96.874 62.0377 99.514 69.2732 103.244 76.1376C105.92 81.0467 108.266 86.0798 110.186 91.3395C114.646 103.583 105.288 116.256 93.0198 117.177C81.5843 118.043 70.8429 108.561 71.7418 96.1348C71.9112 93.6744 72.7771 91.3395 73.6516 89.0453C75.7763 83.4617 78.7537 78.2961 81.371 72.9587C85.5052 64.5445 87.7734 55.6682 88.2001 46.3104C88.2134 46.2884 88.2134 46.2767 88.2001 46.2547C88.2001 45.9394 88.1891 45.6351 88.1774 45.3222C87.9868 39.2985 86.2354 33.5933 83.7537 28.1312C80.2807 20.4919 75.101 14.2471 68.137 9.54032C62.4396 5.68613 56.1478 3.22648 49.441 1.78724C45.7687 1.00134 42.0722 0.439764 38.32 0.260153C37.3882 0.213094 36.5882 0.124464 35.916 -0.000244141H134.994C133.398 0.31584 131.893 0.597412 131.264 0.708787C123.387 2.10332 116.379 5.32613 110.266 10.5286C106.357 13.8431 103.166 17.5616 100.681 21.6621C96.7273 28.1783 95.2441 34.3572 94.6277 38.322Z" fill="#FAFAFA"/>
<path d="M216.388 117.119C215.35 117.132 214.783 116.742 214.501 115.727C213.64 112.667 213.145 109.554 213.189 106.374C213.198 105.628 213.289 104.875 213.439 104.148C214.102 100.89 216.726 99.4793 219.85 100.683C222.788 101.821 224.894 104.028 226.902 106.311C229.489 109.255 231.706 112.476 233.728 115.829C234.364 116.884 234.259 117.091 232.987 117.099C230.2 117.119 227.415 117.105 224.625 117.105C221.878 117.105 219.133 117.08 216.388 117.119ZM218.756 122.852C226.338 122.844 233.917 122.849 241.498 122.849V122.844C249.159 122.844 256.824 122.844 264.488 122.846C265.382 122.846 266.215 122.849 265.949 121.521C264.328 113.477 260.93 106.314 254.951 100.625C247.087 93.149 237.508 90.6117 226.93 92.0282C214.058 93.749 205.497 101.275 200.638 113.007C195.94 124.351 195.661 136.105 198.669 147.929C200.431 154.871 203.685 161.066 208.94 166.058C217.13 173.841 227.038 175.925 237.874 174.378C245.294 173.318 251.548 169.873 256.608 164.27C261.105 159.298 263.858 153.454 265.581 147.051C265.814 146.194 265.54 145.792 264.629 145.792C259.466 145.801 254.3 145.798 249.137 145.795C248.141 145.792 247.904 146.249 248.208 147.154C248.529 148.097 248.786 149.066 249.079 150.017C250.197 153.598 250.595 157.269 250.383 161C250.126 165.565 246.896 167.435 242.84 165.393C240.134 164.026 238.075 161.877 236.249 159.553C227.984 149.038 222.251 137.132 217.367 124.778C216.69 123.062 216.875 122.852 218.756 122.852Z" fill="#FAFAFA"/>
<path d="M193.185 170.8C193.181 172.923 193.087 173.025 191.035 173.025C182.039 173.028 173.044 173.028 164.048 173.025C163.755 173.025 163.462 173.028 163.175 173.003C162.436 172.948 162.156 172.651 162.659 171.974C169.192 163.205 170.814 153.009 171.179 142.47C171.47 134.077 170.352 125.857 167.909 117.825C167.029 114.947 165.781 112.235 164.106 109.709C159.182 102.28 151.174 104.878 147.851 109.466C145.781 112.324 144.613 115.553 143.803 118.931C142.762 123.281 142.328 127.722 142.226 132.174C142.093 137.915 142.179 143.654 142.596 149.393C143.012 155.076 142.901 160.787 142.707 166.487C142.646 168.191 142.655 169.901 142.666 171.606C142.671 172.61 142.212 173.028 141.221 173.028C133.972 173.017 126.725 173.014 119.481 173.028C118.436 173.03 117.921 172.615 117.974 171.547C117.993 171.091 117.971 170.632 117.971 170.172V132.451C117.971 119.67 117.965 106.887 117.982 94.1065C117.985 93.5645 117.672 92.6955 118.303 92.5567C118.856 92.4382 119.033 93.3402 119.305 93.8273C121.573 97.8807 124.066 101.754 127.73 104.726C129.794 106.4 132.11 107.548 134.661 108.326C138.12 109.38 141.027 108.536 143.684 106.231C145.953 104.261 148 102.072 150.15 99.9835C153.174 97.0454 156.57 94.6712 160.578 93.2955C164.644 91.8986 168.819 91.2178 173.113 91.9371C179.214 92.9614 183.151 96.8517 186.09 101.959C189.554 107.98 191.145 114.601 192.161 121.394C192.875 126.175 193.195 130.987 193.187 135.823C193.17 147.483 193.185 159.141 193.185 170.8Z" fill="#FAFAFA"/>
<path d="M103.715 147.596C103.712 155.382 103.712 163.168 103.709 170.954C103.709 172.949 103.643 173.024 101.703 173.024C94.874 173.029 88.0425 173.029 81.211 173.024C79.3545 173.021 79.2078 172.883 79.2078 171.043C79.2024 155.343 79.2024 139.649 79.2055 123.952C79.2055 122.098 79.3075 122.015 81.0204 122.649C88.1147 125.289 95.1924 125.228 102.265 122.558C103.518 122.082 103.709 122.234 103.709 123.737C103.717 131.691 103.715 139.641 103.715 147.596Z" fill="#FAFAFA"/>
<path d="M78.2828 172.681C77.5691 173.179 77.0985 173.063 76.6554 173.063C65.6599 173.072 54.6644 173.058 43.6681 173.085C42.5285 173.091 41.7786 172.781 41.0618 171.812C38.9284 168.905 36.0178 166.752 33.3424 164.383C30.9432 162.258 28.4223 160.275 25.9376 158.247C25.6058 157.975 25.2654 157.447 24.7815 157.696C24.3132 157.939 24.5101 158.526 24.507 158.963C24.4936 163.086 24.5046 167.206 24.4936 171.328C24.4881 172.897 24.3273 173.06 22.7783 173.063C15.8221 173.072 8.86824 173.072 1.91282 173.066C0.0916127 173.066 0.00298554 172.969 0.00298554 171.019C0.000632558 148.324 0.00063026 125.635 0.00063026 102.941C0.00063026 99.9028 -0.00485716 96.8619 0.00847641 93.8234C0.017104 92.363 0.224948 92.1387 1.67203 92.1363C8.74981 92.1246 15.8331 92.1246 22.9132 92.1363C24.3603 92.1387 24.496 92.3183 24.496 94.0007C24.5015 108.989 24.496 123.978 24.5101 138.969C24.5101 139.522 24.2113 140.355 24.7587 140.574C25.3234 140.801 25.6552 139.984 26.0262 139.573C30.2733 134.835 33.6303 129.473 36.8782 124.036C39.3104 119.966 41.9222 115.992 43.7403 111.582C46.1168 105.805 47.3372 99.8086 47.1631 93.5607C47.1356 92.523 47.4399 92.1191 48.4721 92.1246C53.5106 92.1442 58.5515 92.1301 63.59 92.1387C63.994 92.1387 64.503 92.0422 64.7053 92.501C64.8936 92.9442 64.5006 93.2791 64.263 93.6054C57.044 103.644 49.811 113.674 42.5951 123.715C40.4312 126.723 38.3252 129.772 36.1338 132.757C35.4923 133.632 35.6303 134.21 36.3778 134.885C39.6837 137.868 42.952 140.893 46.2556 143.881C50.9451 148.125 55.6628 152.339 60.3531 156.584C66.0583 161.752 71.7502 166.94 77.4522 172.114C77.6632 172.305 77.9283 172.441 78.2828 172.681Z" fill="#FAFAFA"/>
<path d="M257.589 86.4716H258.654C259.163 86.4716 259.512 86.3971 259.697 86.2449C259.883 86.0928 259.974 85.8904 259.974 85.6418C259.974 85.481 259.93 85.3375 259.842 85.2096C259.753 85.0826 259.628 84.9884 259.471 84.9249C259.31 84.8637 259.017 84.8308 258.588 84.8308H257.589V86.4716ZM256.712 89.532V84.0951H258.583C259.222 84.0951 259.684 84.1445 259.969 84.2441C260.254 84.3437 260.483 84.521 260.652 84.7704C260.821 85.0222 260.907 85.2873 260.907 85.5673C260.907 85.9657 260.766 86.3108 260.483 86.6042C260.196 86.9006 259.82 87.0669 259.352 87.1022C259.543 87.183 259.697 87.2795 259.814 87.3901C260.032 87.6034 260.301 87.9634 260.619 88.4693L261.28 89.532H260.21L259.728 88.6771C259.349 88.0018 259.042 87.5783 258.806 87.4097C258.649 87.285 258.414 87.2214 258.107 87.2214H257.589V89.532H256.712ZM258.929 82.5202C258.217 82.5202 257.529 82.7029 256.856 83.0653C256.187 83.4308 255.661 83.9508 255.279 84.6261C254.9 85.3037 254.709 86.0096 254.709 86.7398C254.709 87.4677 254.897 88.165 255.268 88.8348C255.642 89.5015 256.164 90.0215 256.834 90.3948C257.504 90.7658 258.203 90.954 258.929 90.954C259.659 90.954 260.356 90.7658 261.026 90.3948C261.698 90.0215 262.218 89.5015 262.589 88.8348C262.96 88.165 263.145 87.4677 263.145 86.7398C263.145 86.0096 262.954 85.3037 262.578 84.6261C262.199 83.9508 261.673 83.4308 260.998 83.0653C260.323 82.7029 259.634 82.5202 258.929 82.5202ZM258.929 81.6825C259.778 81.6825 260.608 81.9005 261.416 82.3351C262.224 82.7696 262.852 83.3947 263.306 84.2057C263.754 85.0135 263.984 85.8598 263.984 86.7398C263.984 87.612 263.757 88.4473 263.314 89.2528C262.872 90.0552 262.249 90.6803 261.447 91.1258C260.644 91.5682 259.806 91.7894 258.929 91.7894C258.054 91.7894 257.216 91.5682 256.413 91.1258C255.611 90.6803 254.988 90.0552 254.541 89.2528C254.095 88.4473 253.873 87.612 253.873 86.7398C253.873 85.8598 254.097 85.0135 254.551 84.2057C255.005 83.3947 255.636 82.7696 256.444 82.3351C257.252 81.9005 258.082 81.6825 258.929 81.6825Z" fill="#FAFAFA"/>
<path d="M134.672 35.787V53.7251H132.33V45.5925H123.193V53.7251H120.851V35.787H123.193V43.6623H132.33V35.787H134.672ZM146.803 53.9053C145.139 53.9053 143.621 53.5192 142.248 52.7471C140.875 51.9579 139.786 50.8684 138.979 49.4786C138.19 48.0717 137.796 46.4932 137.796 44.7432C137.796 42.9931 138.19 41.4232 138.979 40.0335C139.786 38.6266 140.875 37.5371 142.248 36.765C143.621 35.9757 145.139 35.5811 146.803 35.5811C148.485 35.5811 150.012 35.9757 151.384 36.765C152.757 37.5371 153.838 38.618 154.627 40.0077C155.416 41.3975 155.811 42.976 155.811 44.7432C155.811 46.5104 155.416 48.0889 154.627 49.4786C153.838 50.8684 152.757 51.9579 151.384 52.7471C150.012 53.5192 148.485 53.9053 146.803 53.9053ZM146.803 51.8721C148.056 51.8721 149.18 51.5804 150.175 50.9971C151.187 50.4137 151.976 49.5816 152.542 48.5007C153.126 47.4197 153.417 46.1672 153.417 44.7432C153.417 43.302 153.126 42.0495 152.542 40.9857C151.976 39.9048 151.196 39.0726 150.2 38.4893C149.205 37.9059 148.073 37.6143 146.803 37.6143C145.534 37.6143 144.401 37.9059 143.406 38.4893C142.411 39.0726 141.622 39.9048 141.038 40.9857C140.472 42.0495 140.189 43.302 140.189 44.7432C140.189 46.1672 140.472 47.4197 141.038 48.5007C141.622 49.5816 142.411 50.4137 143.406 50.9971C144.418 51.5804 145.551 51.8721 146.803 51.8721ZM173.006 53.7251H170.664L161.245 39.4415V53.7251H158.903V35.7613H161.245L170.664 50.0191V35.7613H173.006V53.7251ZM179.34 37.6915V43.688H185.877V45.6182H179.34V51.7949H186.649V53.7251H176.998V35.7613H186.649V37.6915H179.34ZM195.881 53.9053C194.697 53.9053 193.633 53.6994 192.69 53.2876C191.763 52.8586 191.034 52.2753 190.502 51.5375C189.97 50.7826 189.696 49.9161 189.678 48.9382H192.175C192.261 49.7789 192.604 50.4909 193.204 51.0743C193.822 51.6405 194.714 51.9236 195.881 51.9236C196.996 51.9236 197.871 51.649 198.506 51.1C199.158 50.5338 199.484 49.8132 199.484 48.9382C199.484 48.2519 199.295 47.6943 198.918 47.2653C198.54 46.8364 198.068 46.5104 197.502 46.2873C196.936 46.0643 196.173 45.8241 195.212 45.5667C194.028 45.2579 193.076 44.9491 192.355 44.6402C191.652 44.3314 191.042 43.851 190.528 43.199C190.03 42.5299 189.781 41.6377 189.781 40.5225C189.781 39.5445 190.03 38.678 190.528 37.9231C191.025 37.1682 191.72 36.5848 192.612 36.173C193.522 35.7613 194.56 35.5554 195.726 35.5554C197.408 35.5554 198.78 35.9757 199.844 36.8164C200.925 37.6572 201.534 38.7724 201.671 40.1621H199.098C199.012 39.4758 198.652 38.8753 198.017 38.3606C197.382 37.8287 196.541 37.5628 195.495 37.5628C194.517 37.5628 193.719 37.8202 193.101 38.3349C192.484 38.8324 192.175 39.5359 192.175 40.4452C192.175 41.0972 192.355 41.6291 192.715 42.0409C193.093 42.4527 193.547 42.7701 194.079 42.9931C194.628 43.199 195.392 43.4392 196.37 43.7137C197.554 44.0397 198.506 44.3657 199.227 44.6917C199.947 45.0005 200.565 45.4895 201.08 46.1587C201.594 46.8107 201.852 47.7028 201.852 48.8352C201.852 49.7103 201.62 50.5338 201.157 51.3059C200.694 52.078 200.007 52.7042 199.098 53.1846C198.189 53.665 197.116 53.9053 195.881 53.9053ZM216.339 35.787V37.6915H211.449V53.7251H209.107V37.6915H204.191V35.787H216.339Z" fill="#FAFAFA"/>
<path d="M140.926 60.056V78.1228H136.525V67.2879L132.484 78.1228H128.932L124.866 67.2621V78.1228H120.465V60.056H125.664L130.734 72.5638L135.753 60.056H140.926ZM148.491 60.056V78.1228H144.09V60.056H148.491ZM156.081 74.7256H161.846V78.1228H151.68V60.056H156.081V74.7256ZM174.42 78.1228L168.346 70.1446V78.1228H163.945V60.056H168.346V67.9828L174.368 60.056H179.541L172.541 68.9093L179.799 78.1228H174.42Z" fill="#FAFAFA"/>
<path d="M-0.000488281 34.0443C-0.000488281 32.5337 0.989334 31.7745 2.98545 31.7745H17.8453C19.2195 31.7745 20.3622 32.1494 21.2579 32.9102C22.4948 33.8577 23.1089 35.2561 23.1089 37.1079C23.1089 38.9534 22.4948 40.5221 21.2579 41.8021C20.8313 42.3237 20.3622 42.7237 19.8407 43.0061C21.4972 43.952 22.3262 44.9535 22.3262 45.992C22.3262 46.7097 22.043 47.2312 21.4697 47.563C21.0446 47.8948 20.5489 48.0564 19.9787 48.0564C18.5606 48.0564 17.2798 47.4179 16.1363 46.1371C14.8155 44.5771 13.1064 43.7904 11.017 43.7904C9.73694 43.7904 8.62633 44.0037 7.68043 44.4312C6.73454 44.8571 6.25374 45.523 6.25374 46.4195C6.25374 47.7497 7.05768 48.6289 8.66947 49.0579C9.71969 49.3379 11.2554 49.4823 13.2962 49.4823L14.788 49.4062H15.6429C17.963 49.4062 19.9693 49.894 21.6509 50.865C23.3317 51.8384 24.1764 53.2478 24.1764 55.098C24.1764 57.6589 22.778 59.6997 19.9787 61.2158C17.7512 62.5397 15.1543 63.2064 12.1935 63.2064C9.23183 63.2064 6.7063 62.7539 4.61685 61.8574C2.43956 60.8072 1.34855 59.3405 1.34855 57.4455C1.34855 56.6424 1.6717 56.0361 2.31092 55.6353C2.95329 55.2267 3.57605 55.029 4.18939 55.029C5.13764 55.029 6.06707 55.7373 6.96513 57.1632C8.533 59.6307 10.7103 60.8589 13.5096 60.8589C14.6013 60.8589 15.6923 60.5523 16.7779 59.9381C17.9222 59.1789 18.4838 58.3232 18.4838 57.3765C18.4838 56.0973 17.7512 55.1498 16.2814 54.5278C15.097 54.007 13.7896 53.749 12.3746 53.749L9.52203 53.818C4.26704 53.818 1.57601 51.9231 1.62856 48.1254C1.76268 38.5362 13.126 41.1629 17.8453 41.1629C18.4673 41.1629 19.0046 40.897 19.4822 40.3762C19.9097 39.7621 20.1238 39.1064 20.1238 38.424C20.1238 37.733 19.9097 37.184 19.4822 36.784C19.0563 36.3832 18.5355 36.1785 17.9222 36.1785H2.98545C1.89445 36.1785 1.11012 35.9918 0.638736 35.6161C0.21363 35.3259 -0.000488281 34.8043 -0.000488281 34.0443ZM52.1809 30.0231L51.7659 29.3109H51.4616V30.0231H51.0561V27.9744H51.8773C52.0648 27.9744 52.2271 28.0387 52.3589 28.1736C52.4938 28.3046 52.5581 28.4646 52.5581 28.6529C52.5581 28.7799 52.522 28.8984 52.4499 29.0066C52.3769 29.1148 52.2812 29.1948 52.1628 29.2489L52.6169 30.0231H52.1809ZM51.4616 28.3509V28.9572H51.8773C51.9518 28.9572 52.0185 28.9266 52.0726 28.867C52.1267 28.8082 52.1557 28.736 52.1557 28.6529C52.1557 28.5674 52.1267 28.4983 52.0726 28.4387C52.0185 28.3791 51.9518 28.3509 51.8773 28.3509H51.4616ZM51.7322 27.0105C50.6357 27.0105 49.7432 27.903 49.7432 28.9995C49.7432 30.0929 50.6357 30.9862 51.7322 30.9862C52.8287 30.9862 53.7213 30.0929 53.7213 28.9995C53.7213 27.903 52.8287 27.0105 51.7322 27.0105ZM51.7322 31.3674C50.4263 31.3674 49.3643 30.3054 49.3643 28.9995C49.3643 27.6913 50.4263 26.6309 51.7322 26.6309C53.0373 26.6309 54.1009 27.6913 54.1009 28.9995C54.1009 30.3054 53.0373 31.3674 51.7322 31.3674ZM25.2439 73.256C25.2439 74.5478 24.4007 75.191 22.7058 75.191H7.3769C5.33137 75.191 3.66703 74.6772 2.40034 73.6584C1.12345 72.6309 0.426969 71.6246 0.287359 70.6473C0.0269619 68.8152 0.599521 67.4143 1.83092 66.2308C2.82623 65.2676 4.0388 64.6872 5.64432 64.6872C7.24827 64.6872 8.45613 65.0825 9.25615 65.8614C10.0609 66.6379 10.4609 67.6747 10.4609 68.9681C10.4609 69.3705 10.3832 69.845 10.2287 70.3736C10.0711 70.9101 10.0115 71.176 10.0609 71.176H22.6329C23.6211 71.176 24.3003 71.3179 24.6815 71.6097C25.0635 71.9015 25.2439 72.4537 25.2439 73.256ZM3.63644 67.6363C3.30388 67.9689 3.16192 68.423 3.16192 68.9367C3.16192 69.4497 3.33447 69.8732 3.66703 70.2034C4.00821 70.5391 4.41606 70.7117 4.90627 70.7117C5.39412 70.7117 5.81687 70.5775 6.10864 70.245C6.44355 69.863 6.57531 69.3932 6.57531 68.903C6.57531 68.4128 6.47963 67.9587 6.17295 67.6363C5.8506 67.2912 5.39412 67.1618 4.90627 67.1618C4.41606 67.1618 3.96899 67.3014 3.63644 67.6363ZM34.8888 41.3896C34.8888 42.1041 35.3531 42.4657 36.2919 42.4657H45.2552C47.7988 42.4657 49.9839 43.4429 51.813 45.4037C53.6452 47.3701 54.5613 49.9246 54.5613 53.0721C54.5613 56.2118 53.813 58.6856 52.3197 60.4926C50.8177 62.2982 48.7376 63.2064 46.0576 63.2064C44.0968 63.2064 42.4764 62.6519 41.2073 61.5342C39.9375 60.4197 39.303 59.055 39.303 57.4479C39.303 57.0479 39.3932 56.444 39.5681 55.6424C39.7469 54.8392 39.8347 53.9725 39.8347 53.0329C39.8347 52.0996 39.4324 51.3615 38.6292 50.8242C37.9147 50.294 37.0402 50.0203 35.9876 50.0203C34.9429 50.0203 33.8644 50.2674 33.2809 51.1599C32.7389 51.9913 32.2134 53.3019 32.5844 54.7051C32.8605 55.7475 33.8566 57.2 35.2676 58.5052C42.1148 64.837 27.9255 69.5665 27.9255 56.6738C27.9255 54.0502 28.6604 51.8415 30.1028 50.1568C31.506 48.516 33.6111 47.7497 36.2919 47.7497C44.7627 47.7497 40.492 56.5169 47.1384 56.1945C52.4381 55.9381 53.2789 50.0478 50.1134 46.8101C48.8898 45.559 47.3086 44.9371 45.3917 44.9371H36.9602C35.4017 44.9371 34.197 44.6249 33.3452 43.9982C32.4942 43.3818 32.0762 42.5041 32.0762 41.3896C32.0762 40.8578 32.2048 40.3864 32.4785 39.984C32.695 39.7174 33.0072 39.4546 33.4103 39.1809C32.9193 39.0523 32.5201 38.5777 32.2048 37.7754C31.8519 37.0609 31.6762 36.2506 31.6762 35.3338C31.6762 34.4185 32.117 33.5588 33.0072 32.7565C33.8597 31.8647 34.9531 31.4223 36.2919 31.4223H47.9361C49.2694 31.4223 49.9432 32.0012 49.9432 33.1596C49.9432 33.8326 49.7596 34.3455 49.4067 34.7C49.0922 35.1024 48.6012 35.3032 47.9361 35.3032H36.6951C35.7555 35.3032 35.2888 35.6546 35.2888 36.3714C35.2888 37.2201 35.7782 37.646 36.7594 37.646H41.8411C42.154 37.646 42.4269 37.7668 42.6442 38.0068C42.8685 38.257 42.9822 38.5464 42.9822 38.8844C42.9822 39.2193 42.8685 39.5268 42.6442 39.824C42.4269 40.1127 42.154 40.257 41.8411 40.257H36.2919C35.9798 40.257 35.706 40.3221 35.4896 40.4586C35.0872 40.6343 34.8888 40.9456 34.8888 41.3896Z" fill="#FAFAFA"/>
</svg>
