<svg width="1080" height="1080" viewBox="0 0 1080 1080" fill="none" xmlns="http://www.w3.org/2000/svg">
<rect width="1080" height="1080" fill="white"/>
<path d="M675 551C693.139 565.959 700.813 590.435 705.625 612.562C705.832 613.489 706.038 614.415 706.251 615.369C710.181 634.233 710.296 653.246 710.236 672.438C710.227 675.913 710.229 679.388 710.229 682.862C710.228 688.671 710.22 694.479 710.206 700.287C710.19 707.003 710.185 713.718 710.186 720.434C710.186 727.616 710.179 734.798 710.17 741.98C710.168 744.044 710.167 746.107 710.167 748.171C710.166 751.993 710.156 755.815 710.145 759.637C710.146 760.781 710.146 761.924 710.147 763.102C710.142 764.134 710.138 765.167 710.134 766.231C710.132 767.133 710.13 768.035 710.129 768.965C710 771 710 771 709 772C706.322 772.095 703.67 772.126 700.992 772.114C700.153 772.114 699.314 772.114 698.45 772.114C695.663 772.113 692.877 772.105 690.09 772.098C688.163 772.096 686.237 772.094 684.31 772.093C679.228 772.09 674.147 772.08 669.065 772.069C663.884 772.058 658.703 772.054 653.522 772.049C643.348 772.038 633.174 772.021 623 772C623.885 767.846 625.933 764.728 628.188 761.187C641.312 739.9 646.296 714.769 647 690C647.033 689.035 647.065 688.07 647.099 687.076C648.053 655.018 645.617 613.463 623.652 587.664C618.258 582.231 612.402 579.975 604.875 579.5C596.547 579.682 588.988 583.507 583.188 589.437C575.504 599.296 571.436 611.919 569 624C568.851 624.707 568.701 625.414 568.547 626.143C565.852 639.534 565.735 652.959 565.75 666.562C565.751 667.842 565.751 667.842 565.752 669.148C565.777 678.37 565.998 687.558 566.504 696.766C567.203 709.824 567.187 722.891 567.185 735.964C567.185 739.533 567.199 743.103 567.216 746.672C567.227 749.446 567.229 752.219 567.229 754.993C567.231 756.948 567.241 758.904 567.252 760.859C567.249 762.033 567.246 763.206 567.243 764.415C567.244 765.448 567.246 766.482 567.247 767.547C567 770 567 770 565 772C562.223 772.247 562.223 772.247 558.639 772.243C557.66 772.246 557.66 772.246 556.662 772.249C554.503 772.252 552.343 772.242 550.184 772.23C548.687 772.229 547.19 772.229 545.693 772.229C542.555 772.227 539.417 772.219 536.279 772.206C532.248 772.189 528.217 772.185 524.186 772.186C521.095 772.185 518.004 772.18 514.913 772.173C513.426 772.17 511.94 772.168 510.453 772.167C508.379 772.165 506.306 772.156 504.232 772.145C503.05 772.141 501.868 772.138 500.65 772.134C498 772 498 772 497 771C496.902 768.08 496.87 765.183 496.88 762.262C496.879 761.334 496.878 760.406 496.877 759.45C496.876 756.316 496.881 753.183 496.887 750.049C496.887 747.812 496.887 745.575 496.886 743.339C496.886 737.246 496.892 731.153 496.899 725.061C496.905 718.701 496.906 712.342 496.907 705.982C496.909 695.301 496.916 684.621 496.925 673.94C496.934 662.936 496.941 651.933 496.945 640.93C496.945 640.252 496.946 639.574 496.946 638.876C496.947 635.476 496.949 632.076 496.95 628.676C496.96 600.45 496.978 572.225 497 544C500.995 545.332 501.722 547.724 503.563 551.25C511.503 565.741 521.263 577.131 536 585C536.611 585.343 537.222 585.686 537.852 586.039C542.293 588.133 546.961 588.426 551.813 588.625C553.098 588.679 554.383 588.733 555.707 588.789C566.362 587.733 574.488 577.901 581.375 570.625C588.77 563.035 595.746 556.285 605 551C605.942 550.435 606.885 549.871 607.856 549.289C628.663 537.776 655.417 536.611 675 551Z" fill="#393185"/>
<path d="M169.248 541.871C169.9 541.869 170.552 541.867 171.224 541.865C173.389 541.861 175.554 541.864 177.719 541.867C179.217 541.867 180.715 541.866 182.214 541.864C185.358 541.863 188.502 541.865 191.646 541.87C195.685 541.875 199.724 541.872 203.762 541.866C206.858 541.862 209.953 541.864 213.048 541.866C214.537 541.867 216.027 541.866 217.517 541.864C219.595 541.861 221.673 541.865 223.752 541.871C225.529 541.872 225.529 541.872 227.343 541.873C230 542 230 542 231 543C231.096 544.772 231.122 546.547 231.12 548.321C231.122 550.052 231.122 550.052 231.124 551.819C231.119 553.735 231.119 553.735 231.113 555.69C231.113 557.04 231.113 558.389 231.114 559.739C231.114 563.415 231.108 567.09 231.101 570.766C231.095 574.603 231.094 578.44 231.093 582.277C231.09 589.548 231.082 596.819 231.072 604.089C231.061 612.365 231.055 620.641 231.05 628.916C231.04 645.944 231.022 662.972 231 680C231.99 680 232.98 680 234 680C234.218 679.478 234.436 678.956 234.66 678.418C236.521 675.059 238.992 672.253 241.437 669.313C247.976 661.263 253.557 652.816 259 644C259.662 642.934 260.325 641.869 261.008 640.771C273.434 620.895 273.434 620.895 284 600C284.279 599.384 284.557 598.769 284.845 598.135C288.968 588.923 291.386 579.926 293 570C293.18 569.078 293.361 568.157 293.547 567.207C294.306 561.833 294.36 556.413 294.517 550.992C294.552 550.123 294.586 549.255 294.621 548.359C294.659 547.176 294.659 547.176 294.697 545.968C295 544 295 544 297 542C299.063 541.76 299.063 541.76 301.633 541.773C302.594 541.773 303.555 541.773 304.545 541.773C305.584 541.784 306.624 541.794 307.695 541.805C308.758 541.808 309.82 541.81 310.915 541.813C314.319 541.825 317.722 541.85 321.125 541.875C323.428 541.885 325.732 541.894 328.035 541.902C333.69 541.924 339.345 541.958 345 542C344.374 545.414 343.781 547.754 341.734 550.574C341.028 551.561 341.028 551.561 340.307 552.568C339.793 553.268 339.279 553.967 338.75 554.688C337.947 555.801 337.947 555.801 337.129 556.938C335.996 558.507 334.86 560.074 333.72 561.639C332.062 563.915 330.414 566.198 328.769 568.484C326.067 572.239 323.355 575.988 320.641 579.734C317.923 583.486 315.212 587.243 312.5 591C311.417 592.5 310.333 594 309.25 595.5C308.714 596.243 308.177 596.985 307.625 597.75C302.75 604.5 302.75 604.5 301.125 606.75C300.042 608.249 298.96 609.749 297.877 611.248C295.159 615.012 292.439 618.775 289.715 622.535C284.251 630.08 278.813 637.642 273.437 645.25C272.949 645.941 272.46 646.632 271.957 647.344C271.049 648.632 270.147 649.922 269.249 651.217C268.432 652.383 267.596 653.536 266.739 654.674C264.575 657.602 264.575 657.602 263.996 661.105C265.336 663.635 267.003 665.323 269.062 667.313C269.884 668.107 270.705 668.901 271.551 669.719C274.222 672.207 276.942 674.619 279.711 676.996C282.65 679.569 285.511 682.219 288.375 684.875C293.871 689.968 299.418 695.001 305 700C306.667 701.5 308.334 703 310 704.5C310.825 705.243 311.65 705.985 312.5 706.75C330 722.5 330 722.5 332.508 724.758C334.147 726.233 335.788 727.707 337.43 729.18C342.495 733.727 347.526 738.309 352.538 742.914C356.472 746.525 360.438 750.1 364.414 753.664C366.335 755.399 368.246 757.143 370.148 758.898C370.953 759.64 370.953 759.64 371.773 760.396C372.814 761.357 373.853 762.319 374.891 763.283C376.978 765.21 379.045 767.032 381.351 768.695C381.895 769.126 382.439 769.556 383 770C383 770.66 383 771.32 383 772C369.961 772.372 356.923 772.656 343.88 772.829C337.821 772.912 331.767 773.025 325.711 773.207C319.855 773.382 314.003 773.477 308.146 773.518C305.922 773.547 303.698 773.605 301.476 773.692C283.171 774.379 283.171 774.379 276.387 768.499C273.09 765.186 270.248 761.611 267.472 757.859C264.727 754.392 261.304 751.924 257.828 749.219C254.358 746.496 251.025 743.633 247.687 740.75C245.999 739.294 244.31 737.838 242.615 736.389C241.531 735.457 240.456 734.515 239.389 733.564C236.618 731.142 234.598 729.715 231 729C231.005 730.267 231.01 731.534 231.016 732.84C231.034 737.523 231.045 742.206 231.055 746.889C231.06 748.92 231.067 750.95 231.075 752.98C231.087 755.892 231.093 758.803 231.098 761.715C231.103 762.628 231.108 763.542 231.113 764.483C231.113 766.656 231.062 768.828 231 771C229.163 772.837 226.213 772.128 223.752 772.129C223.1 772.131 222.448 772.133 221.776 772.135C219.611 772.139 217.446 772.136 215.281 772.133C213.783 772.134 212.284 772.134 210.786 772.136C207.642 772.137 204.498 772.135 201.354 772.13C197.315 772.125 193.276 772.128 189.237 772.134C186.142 772.138 183.047 772.136 179.952 772.134C178.462 772.133 176.973 772.134 175.483 772.136C173.405 772.139 171.326 772.135 169.248 772.129C167.47 772.128 167.47 772.128 165.657 772.127C163 772 163 772 162 771C161.9 768.069 161.866 765.162 161.873 762.231C161.871 761.3 161.87 760.368 161.868 759.409C161.864 756.263 161.867 753.118 161.871 749.973C161.869 747.728 161.867 745.483 161.865 743.238C161.861 737.123 161.862 731.007 161.866 724.892C161.868 718.507 161.866 712.123 161.864 705.739C161.862 694.327 161.865 682.915 161.87 671.504C161.875 661.147 161.874 650.79 161.87 640.433C161.864 628.419 161.862 616.406 161.865 604.393C161.867 598.029 161.867 591.664 161.864 585.3C161.861 579.318 161.863 573.336 161.869 567.354C161.87 565.152 161.869 562.95 161.867 560.747C161.865 557.755 161.868 554.762 161.873 551.769C161.871 550.886 161.868 550.002 161.866 549.092C161.89 541.91 162.177 541.875 169.248 541.871Z" fill="#393185"/>
<path d="M275 281C362.12 281 449.24 281 539 281C539 281.33 539 281.66 539 282C538.442 282.12 537.885 282.24 537.31 282.364C501.393 290.208 470.683 307.487 450.101 338.729C431.681 367.618 427.468 399.385 433 433C433.118 433.735 433.237 434.47 433.358 435.228C437.497 459.853 447.48 482.865 459.207 504.744C482.682 548.854 482.682 548.854 476.565 571.14C474.19 578.889 470.886 585.481 466 592C465.292 592.98 465.292 592.98 464.57 593.98C457.058 603.594 444.726 610.094 433 613C429.219 613.429 425.49 613.477 421.688 613.438C420.671 613.429 419.654 613.421 418.606 613.412C403.179 613.065 391.287 606.657 380.062 596.215C369.654 585.037 364.408 570.209 364.734 555.117C365.538 538.276 374.663 522.543 382.121 507.828C382.67 506.746 382.67 506.746 383.229 505.641C383.6 504.91 383.97 504.179 384.352 503.426C385.11 501.93 385.867 500.434 386.625 498.938C387 498.196 387.376 497.455 387.763 496.691C392.957 486.408 397.808 476.178 401.298 465.169C401.824 463.544 402.382 461.93 402.956 460.321C414.795 426.666 414.034 392.512 398.655 360.352C397.781 358.563 396.891 356.781 396 355C395.505 354.01 395.01 353.02 394.5 352C378.477 321.347 350.126 301.02 317.844 290.121C303.846 285.885 289.549 283.293 275 282C275 281.67 275 281.34 275 281Z" fill="#393185"/>
<path d="M387 628C388.934 628.234 388.934 628.234 391.437 628.75C392.241 628.91 393.044 629.07 393.871 629.234C397 630 397 630 399.124 630.737C406.146 633.126 412.557 633.42 419.937 633.312C421.04 633.316 422.143 633.319 423.279 633.322C431.937 633.266 440.318 632.54 448.437 629.375C452 628 452 628 456 628C456.023 646.628 456.041 665.255 456.052 683.883C456.057 692.531 456.064 701.18 456.075 709.828C456.085 717.364 456.092 724.899 456.094 732.434C456.095 736.427 456.098 740.419 456.106 744.411C456.112 748.165 456.115 751.918 456.113 755.671C456.113 757.053 456.115 758.435 456.119 759.816C456.124 761.694 456.122 763.573 456.12 765.451C456.121 766.505 456.122 767.558 456.123 768.644C456 771 456 771 455 772C452.925 772.105 450.846 772.139 448.768 772.145C447.792 772.15 447.792 772.15 446.797 772.155C444.637 772.165 442.477 772.167 440.316 772.168C438.82 772.171 437.324 772.175 435.829 772.178C432.689 772.184 429.549 772.186 426.409 772.185C422.379 772.185 418.349 772.199 414.32 772.216C411.229 772.227 408.138 772.229 405.047 772.229C403.561 772.23 402.075 772.234 400.589 772.242C398.513 772.252 396.437 772.249 394.362 772.243C393.179 772.244 391.996 772.246 390.777 772.247C388 772 388 772 386 770C385.751 767.555 385.751 767.555 385.753 764.413C385.749 763.226 385.744 762.038 385.74 760.814C385.746 759.505 385.751 758.195 385.757 756.845C385.756 755.458 385.754 754.07 385.751 752.682C385.746 748.907 385.754 745.133 385.764 741.358C385.773 737.415 385.771 733.471 385.771 729.528C385.772 722.906 385.78 716.284 385.794 709.662C385.81 701.996 385.815 694.33 385.814 686.664C385.814 679.301 385.819 671.938 385.827 664.575C385.831 661.436 385.833 658.296 385.833 655.157C385.834 651.465 385.84 647.772 385.85 644.079C385.855 642.07 385.854 640.06 385.853 638.05C385.858 636.865 385.862 635.68 385.866 634.46C385.868 633.423 385.87 632.387 385.871 631.32C386 629 386 629 387 628Z" fill="#3A3286"/>
<path d="M170.111 404.709C171.673 404.69 171.673 404.69 173.267 404.671C174.392 404.669 175.517 404.666 176.676 404.664C177.834 404.657 178.992 404.651 180.185 404.644C182.637 404.634 185.089 404.629 187.541 404.629C191.287 404.625 195.033 404.589 198.779 404.551C201.161 404.545 203.544 404.541 205.926 404.539C207.604 404.517 207.604 404.517 209.316 404.495C215.536 404.532 219.29 404.799 224 409C227.883 413.291 228.681 416.85 228.461 422.469C227.695 426.677 225.581 429.667 223 433C222.402 433.825 221.804 434.65 221.188 435.5C220.796 435.995 220.404 436.49 220 437C220.825 437.681 221.65 438.361 222.5 439.062C225 442 225 442 225.5 445.687C225.335 446.781 225.17 447.874 225 449C221.29 451.473 218.303 451.663 214 451C210.527 449.161 208.178 447.183 205.438 444.375C201.555 440.592 197.905 439.71 192.562 439.687C188.01 439.755 184.892 440.475 181 443C181 445.97 181 448.94 181 452C187.832 454.974 195.215 454.387 202.527 454.478C211.84 454.709 220.609 455.871 228 462C231.114 465.632 231.592 469.015 231.406 473.664C230.389 479.514 226.823 483.6 222.312 487.25C211.206 494.97 198.582 496.416 185.406 494.469C177.865 492.877 173.274 491.015 167.625 485.812C165.364 481.898 165.013 478.418 166 474C168.424 471.715 170.083 471.18 173.305 470.547C177.458 471.245 179.37 474.219 181.938 477.312C186.148 482.327 189.706 486.253 196.492 487.434C202.432 487.443 207.094 486.51 212 483C213.525 479.95 213.236 477.358 213 474C211.029 470.992 208.323 470.151 205 469C202.333 468.687 202.333 468.687 199.543 468.691C198.512 468.666 197.482 468.641 196.42 468.615C194.277 468.58 192.134 468.549 189.99 468.521C182.307 468.325 176.192 467.706 170.125 462.562C166.283 457.93 165.552 454.541 165.684 448.602C166.331 443.277 168.559 439.441 172.312 435.687C178.264 431.951 183.04 430.564 190.051 430.594C190.791 430.583 191.531 430.572 192.293 430.561C195.431 430.515 198.569 430.503 201.707 430.489C204.01 430.473 206.311 430.44 208.613 430.406C209.325 430.409 210.036 430.412 210.769 430.415C212.976 430.416 212.976 430.416 216 430C218.453 426.32 218.395 424.346 218 420C214.766 417.844 213.852 417.744 210.117 417.713C209.126 417.699 208.135 417.686 207.114 417.672C206.045 417.667 204.976 417.662 203.875 417.656C202.777 417.642 201.678 417.627 200.546 417.612C197.031 417.565 193.516 417.531 190 417.5C185.375 417.459 180.75 417.405 176.125 417.344C175.056 417.338 173.987 417.333 172.886 417.328C171.895 417.314 170.904 417.301 169.883 417.287C169.01 417.28 168.138 417.272 167.239 417.265C165 417 165 417 162 415C161.602 413.125 161.602 413.125 161.625 411C161.617 410.299 161.61 409.597 161.602 408.875C162.526 404.525 166.462 404.74 170.111 404.709Z" fill="#3D3587"/>
<path d="M264.158 403.871C265.016 403.867 265.873 403.864 266.757 403.861C268.148 403.864 268.148 403.864 269.566 403.867C270.516 403.866 271.465 403.865 272.443 403.864C274.451 403.864 276.459 403.865 278.468 403.87C281.553 403.875 284.639 403.87 287.725 403.863C289.672 403.864 291.619 403.865 293.566 403.867C294.496 403.865 295.425 403.863 296.382 403.861C297.664 403.866 297.664 403.866 298.971 403.871C299.727 403.871 300.482 403.872 301.261 403.873C303 404 303 404 304 405C304.371 410.841 304.371 410.841 304 413C300.194 415.538 297.031 415.35 292.613 415.414C291.388 415.443 291.388 415.443 290.137 415.473C287.529 415.533 284.921 415.579 282.312 415.625C280.544 415.663 278.775 415.702 277.006 415.742C272.671 415.838 268.336 415.922 264 416C264 417.32 264 418.64 264 420C264.565 420.02 265.13 420.04 265.712 420.06C268.267 420.155 270.821 420.265 273.375 420.375C274.264 420.406 275.154 420.437 276.07 420.469C276.921 420.507 277.772 420.546 278.648 420.586C279.434 420.617 280.219 420.649 281.029 420.681C283 421 283 421 285 423C284.444 427.556 284.444 427.556 283 429C281.514 429.157 280.021 429.251 278.527 429.316C277.628 429.358 276.729 429.4 275.803 429.443C274.857 429.483 273.912 429.522 272.938 429.563C271.988 429.606 271.039 429.649 270.061 429.693C267.707 429.8 265.354 429.902 263 430C263 431.32 263 432.64 263 434C263.953 434.009 264.905 434.019 265.886 434.028C269.46 434.069 273.032 434.134 276.605 434.208C278.144 434.236 279.683 434.257 281.222 434.271C292.473 434.381 301.766 435.274 310.43 443.152C317.683 451.687 318.645 461.232 318 472C316.692 479.226 314.091 485.076 308.688 490.188C302.172 494.582 296.809 495.931 289 495C284.343 493.757 280.4 491.401 277 488C273.605 481.795 273.317 476.731 275 470C275.513 464.937 275.513 464.937 273.188 460.625C270.145 458.365 267.693 457.861 264 457.875C263.319 457.872 262.639 457.87 261.938 457.867C259.781 457.934 259.781 457.934 257 459C255.481 463.134 255.246 467.684 256 472C257.63 475.014 259.719 477.457 262 480C262.941 481.122 263.878 482.247 264.812 483.375C265.534 484.241 266.256 485.108 267 486C268.463 488.926 268.445 490.756 268 494C265.388 497.08 263.762 498.639 259.809 499.449C255.955 499.638 253.324 499.137 249.75 497.625C243.866 492.009 241.753 486.305 241.466 478.258C241.457 477.472 241.447 476.685 241.438 475.875C241.423 475.123 241.408 474.372 241.393 473.597C241.515 466.905 243.578 461.758 248 456.723C248.66 456.175 249.32 455.627 250 455.063C250.66 454.497 251.32 453.931 252 453.348C256.159 450.545 260.453 450.781 265.375 450.688C266.661 450.65 267.948 450.613 269.273 450.574C273.595 451.068 275.647 452.288 279 455C282.443 459.355 287 466.215 287 472C290.175 473.059 292.54 473.167 295.875 473.188C297.418 473.209 297.418 473.209 298.992 473.23C302.17 472.987 304.241 472.601 307 471C309.969 465.784 309.732 459.812 309 454C306.967 448.685 303.166 446.193 298.199 443.814C294.637 442.495 291.316 442.492 287.555 442.566C285.967 442.557 284.38 442.547 282.793 442.537C280.327 442.546 277.86 442.563 275.394 442.585C272.989 442.599 270.585 442.584 268.18 442.566C267.448 442.583 266.717 442.599 265.963 442.616C262.05 442.578 259.545 442.022 256.528 439.612C254 437 254 437 253.379 434.648C253.439 433.898 253.5 433.148 253.562 432.375C253.605 431.62 253.648 430.864 253.691 430.086C254 428 254 428 255 425C254.25 423.271 253.498 421.544 252.727 419.824C251.57 416.921 251.422 415.084 252 412C255.324 407.07 258.037 403.877 264.158 403.871Z" fill="#3F3788"/>
<path fill-rule="evenodd" clip-rule="evenodd" d="M914.938 615.062C908.963 595.189 898.584 576.66 882.641 563.086C860.26 544.657 833.294 538.078 804.66 541.441C780.827 545.079 759.303 557.265 744.705 576.567C723.313 606.347 715.508 645.42 721.309 681.402L722 685C726.456 708.283 733.831 730.888 750.437 748.526C769.001 767.475 791.015 776.9 817.518 777.295L820.813 777.312C841.676 777.427 860.943 771.822 877.867 759.441C897.747 743.949 912.423 720.036 916 695H867C866.323 697.708 866.104 698.583 866.174 699.434C866.208 699.84 866.307 700.24 866.453 700.832C870.225 710.206 872.109 720.054 872.351 730.131L872.375 732.5C872.415 734.674 872.403 736.815 872.285 738.986C871.613 743.734 869.868 747.231 866.25 750.437C861.78 752.587 858.273 752.794 853.574 751.152C813.075 713.715 813.075 713.715 790.612 661.337L789.188 658.125C786.498 652.066 783.959 645.972 781.638 639.762L780.837 637.609C779.89 635.073 778.944 632.537 778 630C795.011 630.022 812.022 630.04 829.034 630.05C837.302 630.055 845.57 630.061 853.839 630.072C861.102 630.082 868.366 630.09 875.63 630.093L876.727 630.094C880.196 630.095 883.664 630.096 887.133 630.101C890.804 630.108 894.475 630.114 898.147 630.114C899.497 630.113 900.847 630.113 902.197 630.113L906.057 630.124L909.559 630.12C909.886 630.12 910.201 630.123 910.506 630.126C912.92 630.145 914.681 630.159 917 629C917.216 624.815 916.717 621.223 915.579 617.191L914.938 615.062ZM826 610C818.837 594.574 803.519 573.491 787.414 566.672C777.397 563.884 771.121 566.21 767 576C765.764 586.928 766.596 600.61 771.234 610.679C772.187 611.931 772.625 612.508 773.2 612.868C773.69 613.175 774.28 613.324 775.373 613.601L778.206 613.568L781.421 613.566L784.887 613.488C788.549 613.466 792.209 613.438 795.87 613.377C798.42 613.334 800.97 613.3 803.521 613.275C811.014 613.214 818.507 613.127 826 613V610Z" fill="#393185"/>
<path d="M183 499C186.855 500.997 188.598 502.397 191 506C191.23 508.41 191.23 508.41 191.188 511.063C191.181 511.94 191.175 512.818 191.168 513.723C191 516 191 516 190 518C191.262 517.99 192.524 517.979 193.824 517.968C198.494 517.932 203.164 517.909 207.834 517.89C209.858 517.88 211.881 517.866 213.905 517.849C216.809 517.825 219.713 517.814 222.617 517.805C223.526 517.794 224.434 517.784 225.37 517.773C226.211 517.773 227.051 517.773 227.917 517.773C229.03 517.766 229.03 517.766 230.165 517.76C232 518 232 518 234 520C234.375 522.938 234.375 522.938 234 526C231.026 528.926 228.813 529.38 224.716 529.404C223.661 529.417 222.606 529.429 221.519 529.443C220.383 529.44 219.248 529.437 218.078 529.434C216.904 529.439 215.73 529.444 214.521 529.449C212.036 529.456 209.551 529.455 207.066 529.446C203.278 529.438 199.491 529.466 195.703 529.498C193.286 529.5 190.87 529.499 188.453 529.496C187.326 529.507 186.198 529.519 185.037 529.53C177.825 529.467 171.784 528.7 166.447 523.482C163.651 520.237 162.097 518.013 161.688 513.75C162.153 508.167 164.495 505.326 168.625 501.688C173.274 498.384 177.403 498.365 183 499Z" fill="#3C3486"/>
<path d="M175.5 505.75C178 506 178 506 180 508C180.25 511 180.25 511 180 514C178 516 178 516 175.5 516.25C173 516 173 516 171 514C170.75 511 170.75 511 171 508C173 506 173 506 175.5 505.75Z" fill="#F8F8FA"/>
<path d="M309 392C313.875 392.875 313.875 392.875 315 394C315.041 396 315.043 398 315 400C314.01 400 313.02 400 312 400C311.814 398.577 311.814 398.577 311.625 397.125C311.283 393.913 311.283 393.913 309 392Z" fill="#F7F7F9"/>
</svg>
